# AST/ASF file generated using VICON BodyLanguage
# -----------------------------------------------
:version 1.10
:name VICON
:units
  mass 1.0
  length 0.45
  angle deg
:documentation
   .ast/.asf automatically generated from VICON data using
   VICON BodyBuilder and BodyLanguage model FoxedUp or BRILLIANT.MOD
:root
   order TX TY TZ RX RY RZ
   axis XYZ
   position 0 0 0  
   orientation 0 0 0 
:bonedata
  begin
     id 1 
     name lhipjoint
     direction 0.682418 -0.694059 0.22932 
     length 2.25561 
     axis 0 0 0  XYZ
  end
  begin
     id 2 
     name lfemur
     direction 0.34202 -0.939693 0  
     length 6.96448  
     axis 0 0 20  XYZ
    dof rx ry rz
    limits (-160.0 20.0)
           (-70.0 70.0)
           (-60.0 70.0)
  end
  begin
     id 3 
     name ltibia
     direction 0.34202 -0.939693 0   
     length 6.88553   
     axis 0 0 20   XYZ
    dof rx
    limits (-10.0 170.0)
  end
  begin
     id 4 
     name lfoot
     direction 0.0723587 -0.198804 0.977364   
     length 1.88518   
     axis -90 7.62852e-016 20   XYZ
    dof rx rz
    limits (-45.0 90.0)
           (-70.0 20.0)
  end
  begin
     id 5 
     name ltoes
     direction 1.53558e-011 -4.21962e-011 1   
     length 0.952124   
     axis -90 7.62852e-016 20   XYZ
    dof rx
    limits (-90.0 20.0)
  end
  begin
     id 6 
     name rhipjoint
     direction -0.657603 -0.71533 0.236348   
     length 2.18854  
     axis 0 0 0  XYZ 
  end
  begin
     id 7 
     name rfemur
     direction -0.34202 -0.939693 0   
     length 6.86686   
     axis 0 0 -20   XYZ
    dof rx ry rz
    limits (-160.0 20.0)
           (-70.0 70.0)
           (-70.0 60.0)
  end
  begin
     id 8 
     name rtibia
     direction -0.34202 -0.939693 0   
     length 6.59503   
     axis 0 0 -20   XYZ
    dof rx
    limits (-10.0 170.0)
 end
 begin
     id 9 
     name rfoot
     direction -0.101977 -0.280179 0.954516   
     length 1.93723  
     axis -90 -7.62852e-016 -20   XYZ
    dof rx rz
    limits (-45.0 90.0)
           (-20.0 70.0)
  end
  begin
     id 10 
     name rtoes
     direction -1.53564e-011 -4.21897e-011 1   
     length 0.970315   
     axis -90 -7.62852e-016 -20   XYZ
    dof rx
    limits (-90.0 20.0)
  end
  begin
     id 11 
     name lowerback
     direction -0.0339559 0.999421 -0.00235966   
     length 1.88543   
     axis 0 0 0   XYZ
    dof rx ry rz
    limits (-20.0 45.0)
           (-30.0 30.0)
           (-30.0 30.0)
  end
  begin
     id 12 
     name upperback
     direction 0.00401003 0.999739 0.0224689   
     length 1.8856   
     axis 0 0 0   XYZ
    dof rx ry rz
    limits (-20.0 45.0)
           (-30.0 30.0)
           (-30.0 30.0)
  end
  begin
     id 13 
     name thorax
     direction 0.0198619 0.999546 0.0226536   
     length 1.88352   
     axis 0 0 0   XYZ
    dof rx ry rz
    limits (-20.0 45.0)
           (-30.0 30.0)
           (-30.0 30.0)
  end
  begin
     id 14 
     name lowerneck
     direction -0.0461848 0.998632 0.0245198   
     length 1.34895   
     axis 0 0 0   XYZ
    dof rx ry rz
    limits (-20.0 45.0)
           (-30.0 30.0)
           (-30.0 30.0)
  end
  begin
     id 15 
     name upperneck
     direction -0.0180627 0.994724 -0.100984   
     length 1.35214   
     axis 0 0 0   XYZ
    dof rx ry rz
    limits (-20.0 45.0)
           (-30.0 30.0)
           (-30.0 30.0)
  end
  begin
     id 16
     name head
     direction -0.00374772 0.999293 -0.037403  
     length 1.3568  
     axis 0 0 0   XYZ
    dof rx ry rz
    limits (-20.0 45.0)
           (-30.0 30.0)
           (-30.0 30.0)
  end
  begin
     id 17 
     name lclavicle
     direction 0.971773 0.191119 0.138311  
     length 2.84954  
     axis 0 0 0   XYZ
    dof ry rz
    limits (-20.0 10.0)
           (0.0 20.0)
  end
  begin
     id 18 
     name lhumerus
     direction 1 -4.4897e-011 -2.43761e-027   
     length 4.40919   
     axis 180 -30 -90   XYZ
    dof rx ry rz
    limits (-60.0 90.0)
           (-90.0 90.0)
           (-90.0 90.0)
  end
  begin
     id 19
     name lradius
     direction 1 -4.4896e-011 -9.1621e-027   
     length 3.03857   
     axis 180 -30 -90   XYZ
    dof rx
    limits (-10.0 170.0)
  end
  begin
     id 20
     name lwrist
     direction 1 -4.4896e-011 -1.41363e-026   
     length 1.51928   
     axis 1.07133e-014 90 90   XYZ
    dof ry
    limits (-180.0 0.0)
 end
  begin
     id 21 
     name lhand
     direction 1 -4.48978e-011 -2.82725e-026   
     length 0.523208   
     axis 1.80403e-014 90 90   XYZ
    dof rx rz
    limits (-90.0 90.0)
           (-45.0 45.0)
  end
  begin
     id 22 
     name lfingers
     direction 1 -4.48977e-011 -5.6545e-026   
     length 0.421824   
     axis 3.60806e-014 90 90   XYZ
    dof rx
    limits (0.0 90.0)
  end
  begin
     id 23
     name lthumb
     direction 0.707107 -6.34962e-011 0.707107   
     length 0.605657   
     axis -90 45 2.85299e-015   XYZ
    dof rx rz
    limits (-45.0 45.0)
           (-45.0 45.0)
  end
  begin
     id 24 
     name rclavicle
     direction -0.957247 0.24311 0.156766   
     length 3.12406  
     axis 0 0 0   XYZ 
    dof ry rz
    limits (-10.0 20.0)
           (-20.0 0.0)
  end
  begin
     id 25 
     name rhumerus
     direction -1 -4.48964e-011 -1.70632e-027  
     length 4.61969   
     axis 180 30 90   XYZ
    dof rx ry rz
    limits (-90.0 60.0)
           (-90.0 90.0)
           (-90.0 90.0)
  end
  begin
     id 26 
     name rradius
     direction -1 -4.48966e-011 -6.60395e-027   
     length 3.09382   
     axis 180 30 90   XYZ
    dof rx
    limits (-10.0 170.0)
  end
  begin
     id 27 
     name rwrist
     direction -1 -4.48963e-011 -1.41363e-026   
     length 1.54691   
     axis 1.07133e-014 -90 -90   XYZ
    dof ry
    limits (-180.0 0.0)
  end
  begin
     id 28
     name rhand
     direction -1 -4.49013e-011 -2.82725e-026   
     length 0.500896   
     axis 1.80403e-014 -90 -90   XYZ
    dof rx rz
    limits (-90.0 90.0)
           (-45.0 45.0)
  end
  begin
     id 29
     name rfingers
     direction -1 -4.48902e-011 -5.6545e-026   
     length 0.403835   
     axis 3.60806e-014 -90 -90   XYZ
    dof rx
    limits (0.0 90.0)
  end
  begin
     id 30
     name rthumb
     direction -0.707107 -6.34953e-011 0.707107   
     length 0.579829   
     axis -90 -45 -2.85299e-015   XYZ
    dof rx rz
    limits (-45.0 45.0)
           (-45.0 45.0)
  end
:hierarchy
  begin
    root lhipjoint rhipjoint lowerback
    lhipjoint lfemur
    lfemur ltibia
    ltibia lfoot
    lfoot ltoes
    rhipjoint rfemur
    rfemur rtibia
    rtibia rfoot
    rfoot rtoes
    lowerback upperback
    upperback thorax
    thorax lowerneck lclavicle rclavicle
    lowerneck upperneck
    upperneck head
    lclavicle lhumerus
    lhumerus lradius
    lradius lwrist
    lwrist lhand lthumb
    lhand lfingers
    rclavicle rhumerus
    rhumerus rradius
    rradius rwrist
    rwrist rhand rthumb
    rhand rfingers
  end

#!OML:ASF E:\madness\Project 1\Capture day 1\Session 1\Female1.ASF
:FULLY-SPECIFIED
:DEGREES
655
root 31.7268 15.8002 -3.69593 -350.601 -76.8008 359.872
lowerback -2.74957 3.07655 -4.75076
upperback -2.09739 4.16435 -0.952328
thorax -0.887347 2.12076 1.74469
lowerneck 8.96779 21.617 14.3409
upperneck -2.17982 30.3117 -22.2957
head 3.58134 15.5174 -7.26036
rclavicle -6.72141e-014 -9.54166e-015
rhumerus -77.1871 -7.45775 -48.3611
rradius 88.7602
rwrist -12.2081
rhand -4.01752 -47.3437
rfingers 7.12502
rthumb 21.7371 -76.1432
lclavicle -6.72141e-014 -9.54166e-015
lhumerus -47.6416 -44.2516 48.8052
lradius 104.276
lwrist -1.30562
lhand -33.1686 -0.595701
lfingers 7.12502
lthumb -6.37702 29.2883
rfemur -17.4634 -3.97114 22.3813
rtibia 34.1573
rfoot -30.1271 -12.1905
rtoes 31.1819
lfemur -27.7761 -15.8362 -12.7502
ltibia 40.3172
lfoot -17.4503 8.78672
ltoes -3.59781
656
root 31.7248 15.7959 -3.71063 -350.504 -76.0516 360.022
lowerback -2.69984 3.08384 -4.87482
upperback -2.06698 4.17558 -0.926405
thorax -0.895777 2.12814 1.83782
lowerneck 8.59777 21.8297 13.9752
upperneck -2.12617 30.5353 -22.1288
head 3.60958 15.6034 -7.10092
rclavicle -8.21726e-014 2.54444e-014
rhumerus -77.6473 -7.5296 -47.6859
rradius 88.6692
rwrist -11.8231
rhand -2.01281 -48.755
rfingers 7.12502
rthumb 23.6611 -77.3189
lclavicle -8.21726e-014 2.54444e-014
lhumerus -46.4087 -44.7211 48.2813
lradius 104.296
lwrist -0.688861
lhand -33.1321 -1.07938
lfingers 7.12502
lthumb -6.34176 28.8057
rfemur -17.6513 -4.35506 22.5186
rtibia 34.121
rfoot -30.3493 -12.2565
rtoes 31.9624
lfemur -28.2376 -16.2584 -12.5424
ltibia 40.2936
lfoot -17.215 8.73156
ltoes -4.30632
657
root 31.7224 15.7866 -3.72458 -350.193 -75.2476 359.915
lowerback -2.54007 3.24159 -4.74113
upperback -2.12402 4.37043 -1.08331
thorax -1.03438 2.22604 1.59249
lowerneck 8.64367 21.7261 14.6043
upperneck -2.18473 30.4983 -22.7324
head 3.77859 15.594 -7.31555
rclavicle -5.64051e-014 2.06736e-014
rhumerus -78.6819 -7.81614 -47.0721
rradius 88.6056
rwrist -11.4875
rhand 0.169314 -50.3337
rfingers 7.12502
rthumb 25.7525 -78.611
lclavicle -5.64051e-014 2.06736e-014
lhumerus -44.4584 -45.6555 47.1951
lradius 104.293
lwrist 0.160391
lhand -33.1758 -1.63091
lfingers 7.12502
lthumb -6.38392 28.2529
rfemur -17.8336 -4.77873 22.741
rtibia 34.115
rfoot -30.6026 -12.2582
rtoes 33.0945
lfemur -28.7531 -16.813 -12.2474
ltibia 40.387
lfoot -17.0193 8.61776
ltoes -4.53013
658
root 31.7117 15.794 -3.73718 -350.024 -74.4259 359.791
lowerback -2.11339 3.63812 -4.29108
upperback -2.32608 4.85357 -1.56014
thorax -1.43138 2.46528 0.821372
lowerneck 8.90209 21.5066 15.3748
upperneck -2.20234 30.3162 -22.8565
head 3.83755 15.5211 -7.47385
rclavicle 1.4556e-013 -3.18055e-015
rhumerus -80.6225 -8.47926 -46.6565
rradius 88.1773
rwrist -12.3022
rhand -2.47083 -47.279
rfingers 7.12502
rthumb 23.2217 -75.899
lclavicle 1.4556e-013 -3.18055e-015
lhumerus -41.6154 -47.364 45.3098
lradius 104.197
lwrist 1.39214
lhand -32.8867 -2.38233
lfingers 7.12502
lthumb -6.10483 27.5097
rfemur -17.7606 -5.22044 22.9571
rtibia 34.0558
rfoot -30.9286 -12.1639
rtoes 34.407
lfemur -29.0639 -17.3075 -12.0234
ltibia 40.5117
lfoot -17.1131 8.30089
ltoes -3.98901
659
root 31.7043 15.7934 -3.75365 -349.893 -73.5577 359.771
lowerback -1.74185 3.91727 -3.92955
upperback -2.5047 5.18778 -1.97109
thorax -1.76776 2.62768 0.167128
lowerneck 8.61858 21.4141 15.3157
upperneck -1.94611 30.1641 -22.301
head 3.82395 15.4157 -7.30619
rclavicle -7.42958e-014 2.22639e-014
rhumerus -82.1425 -9.00947 -46.1053
rradius 88.105
rwrist -11.5313
rhand -0.968204 -47.9549
rfingers 7.12502
rthumb 24.6627 -76.3856
lclavicle -7.42958e-014 2.22639e-014
lhumerus -38.9642 -48.7695 43.4861
lradius 104.047
lwrist 2.37938
lhand -32.5043 -3.12614
lfingers 7.12502
lthumb -5.73566 26.7762
rfemur -17.7294 -5.69214 23.1774
rtibia 33.9343
rfoot -31.1722 -12.2437
rtoes 35.2144
lfemur -29.5235 -17.774 -11.7783
ltibia 40.6901
lfoot -17.0136 7.87265
ltoes -3.62006
